<svg width="1920" height="226" viewBox="0 0 1920 226" fill="none" xmlns="http://www.w3.org/2000/svg">
<path d="M-146.159 39.1815C-133.679 37.7415 -122.039 32.9415 -122.039 19.9815C-122.039 3.18152 -141.959 0.0615177 -157.439 0.0615177H-182.519V84.0615H-152.279C-136.679 84.0615 -116.759 78.4215 -116.759 61.5015C-116.759 46.8615 -131.999 40.6215 -146.159 39.1815ZM-157.439 1.02152C-137.759 1.02152 -131.399 9.42152 -131.399 19.9815C-131.399 30.6615 -137.759 38.9415 -157.439 38.9415H-173.159V1.02152H-157.439ZM-152.279 83.2215H-173.159V39.9015H-152.279C-132.479 39.9015 -126.239 50.9415 -126.239 61.5015C-126.239 72.1815 -132.479 83.2215 -152.279 83.2215ZM-80.9153 26.3415C-90.5153 26.3415 -96.2753 31.3815 -98.1953 37.8615L-97.3553 38.2215C-95.4353 31.8615 -89.7953 27.5415 -81.9953 27.5415C-73.4753 27.5415 -68.5553 35.5815 -68.5553 44.7015V55.8615C-75.9953 40.5015 -110.795 41.7015 -110.795 66.1815C-110.795 76.7415 -100.715 84.6615 -89.3153 84.6615C-77.1953 84.6615 -70.7153 76.0215 -68.5553 67.2615L-60.3953 84.0615H-59.0753V46.2615C-59.0753 31.5015 -70.9553 26.3415 -80.9153 26.3415ZM-86.6753 82.3815C-94.9553 82.3815 -102.155 75.0615 -102.155 65.1015C-102.155 41.5815 -73.2353 44.3415 -68.5553 58.1415V61.0215C-69.0353 71.3415 -75.5153 82.3815 -86.6753 82.3815ZM3.32188 47.3415C1.76188 33.0615 -6.51812 26.3415 -16.3581 26.3415C-31.9581 26.3415 -36.0381 42.5415 -37.5981 56.1015V27.1815H-47.0781V84.0615H-37.5981V66.3015C-37.5981 56.2215 -35.1981 31.0215 -21.7581 28.5015C-11.4381 26.4615 -6.99812 36.6615 -6.03812 45.6615C-5.43812 51.7815 -2.91812 80.1015 -2.55812 84.0615H7.04188C6.44188 79.6215 4.52188 59.1015 3.32188 47.3415ZM41.8719 44.4615L61.3119 27.1815H59.9919L26.0319 57.3015V0.0615177H16.6719V84.0615H26.0319V58.3815L35.7519 49.7415L56.7519 84.0615H66.4719L41.8719 44.4615ZM152.97 47.3415C151.41 33.0615 143.13 26.3415 133.29 26.3415C117.69 26.3415 113.61 42.5415 112.05 56.1015V0.0615177H102.57V84.0615H112.05V66.1815C112.05 56.1015 114.45 31.0215 127.89 28.5015C138.21 26.4615 142.65 36.6615 143.61 45.6615C144.21 51.7815 146.61 80.1015 147.09 84.0615H156.57C156.09 79.6215 154.17 59.1015 152.97 47.3415ZM194.283 26.3415C179.163 26.3415 162.603 37.2615 162.603 55.5015C162.603 73.7415 179.163 84.6615 194.283 84.6615C209.403 84.6615 225.963 73.7415 225.963 55.5015C225.963 37.2615 209.403 26.3415 194.283 26.3415ZM194.283 83.7015C182.403 83.7015 172.443 71.3415 172.443 55.5015C172.443 39.6615 182.403 27.3015 194.283 27.3015C206.163 27.3015 216.123 39.6615 216.123 55.5015C216.123 71.3415 206.163 83.7015 194.283 83.7015ZM269.114 62.8215C269.114 72.7815 265.634 82.1415 257.594 82.5015C248.114 82.9815 246.194 75.7815 246.194 65.3415V27.1815H260.234V26.3415H246.194V9.90152H244.874L236.714 26.3415H229.634V27.1815H236.714V63.6615C236.714 77.7015 243.314 84.6615 253.874 84.6615C266.594 84.6615 269.954 74.2215 269.954 62.8215H269.114ZM334.003 67.3815C332.083 70.8615 325.603 81.3015 313.843 82.5015C301.603 83.8215 291.523 77.1015 287.083 64.5015C285.043 58.7415 284.803 51.6615 286.243 45.3015H333.403C331.723 30.7815 317.683 25.7415 307.603 26.3415C294.403 26.9415 275.443 35.9415 276.043 56.8215C276.523 76.5015 294.043 85.3815 309.643 84.6615C323.923 83.9415 331.003 74.5815 334.843 67.7415L334.003 67.3815ZM302.083 27.6615C313.843 25.5015 323.203 33.9015 324.763 44.3415H286.483C288.763 36.1815 293.923 29.2215 302.083 27.6615ZM343.273 0.0615177V84.0615H352.753V0.0615177H343.273ZM1194.58 39.1815C1207.06 37.7415 1218.7 32.9415 1218.7 19.9815C1218.7 3.18152 1198.78 0.0615177 1183.3 0.0615177H1158.22V84.0615H1188.46C1204.06 84.0615 1223.98 78.4215 1223.98 61.5015C1223.98 46.8615 1208.74 40.6215 1194.58 39.1815ZM1183.3 1.02152C1202.98 1.02152 1209.34 9.42152 1209.34 19.9815C1209.34 30.6615 1202.98 38.9415 1183.3 38.9415H1167.58V1.02152H1183.3ZM1188.46 83.2215H1167.58V39.9015H1188.46C1208.26 39.9015 1214.5 50.9415 1214.5 61.5015C1214.5 72.1815 1208.26 83.2215 1188.46 83.2215ZM1259.83 26.3415C1250.23 26.3415 1244.47 31.3815 1242.55 37.8615L1243.39 38.2215C1245.31 31.8615 1250.95 27.5415 1258.75 27.5415C1267.27 27.5415 1272.19 35.5815 1272.19 44.7015V55.8615C1264.75 40.5015 1229.95 41.7015 1229.95 66.1815C1229.95 76.7415 1240.03 84.6615 1251.43 84.6615C1263.55 84.6615 1270.03 76.0215 1272.19 67.2615L1280.35 84.0615H1281.67V46.2615C1281.67 31.5015 1269.79 26.3415 1259.83 26.3415ZM1254.07 82.3815C1245.79 82.3815 1238.59 75.0615 1238.59 65.1015C1238.59 41.5815 1267.51 44.3415 1272.19 58.1415V61.0215C1271.71 71.3415 1265.23 82.3815 1254.07 82.3815ZM1344.06 47.3415C1342.5 33.0615 1334.22 26.3415 1324.38 26.3415C1308.78 26.3415 1304.7 42.5415 1303.14 56.1015V27.1815H1293.66V84.0615H1303.14V66.3015C1303.14 56.2215 1305.54 31.0215 1318.98 28.5015C1329.3 26.4615 1333.74 36.6615 1334.7 45.6615C1335.3 51.7815 1337.82 80.1015 1338.18 84.0615H1347.78C1347.18 79.6215 1345.26 59.1015 1344.06 47.3415ZM1382.61 44.4615L1402.05 27.1815H1400.73L1366.77 57.3015V0.0615177H1357.41V84.0615H1366.77V58.3815L1376.49 49.7415L1397.49 84.0615H1407.21L1382.61 44.4615ZM1493.71 47.3415C1492.15 33.0615 1483.87 26.3415 1474.03 26.3415C1458.43 26.3415 1454.35 42.5415 1452.79 56.1015V0.0615177H1443.31V84.0615H1452.79V66.1815C1452.79 56.1015 1455.19 31.0215 1468.63 28.5015C1478.95 26.4615 1483.39 36.6615 1484.35 45.6615C1484.95 51.7815 1487.35 80.1015 1487.83 84.0615H1497.31C1496.83 79.6215 1494.91 59.1015 1493.71 47.3415ZM1535.03 26.3415C1519.91 26.3415 1503.35 37.2615 1503.35 55.5015C1503.35 73.7415 1519.91 84.6615 1535.03 84.6615C1550.15 84.6615 1566.71 73.7415 1566.71 55.5015C1566.71 37.2615 1550.15 26.3415 1535.03 26.3415ZM1535.03 83.7015C1523.15 83.7015 1513.19 71.3415 1513.19 55.5015C1513.19 39.6615 1523.15 27.3015 1535.03 27.3015C1546.91 27.3015 1556.87 39.6615 1556.87 55.5015C1556.87 71.3415 1546.91 83.7015 1535.03 83.7015ZM1609.86 62.8215C1609.86 72.7815 1606.38 82.1415 1598.34 82.5015C1588.86 82.9815 1586.94 75.7815 1586.94 65.3415V27.1815L1600.98 27.1815V26.3415L1586.94 26.3415V9.90152H1585.62L1577.46 26.3415H1570.38V27.1815H1577.46V63.6615C1577.46 77.7015 1584.06 84.6615 1594.62 84.6615C1607.34 84.6615 1610.7 74.2215 1610.7 62.8215H1609.86ZM1674.75 67.3815C1672.83 70.8615 1666.35 81.3015 1654.59 82.5015C1642.35 83.8215 1632.27 77.1015 1627.83 64.5015C1625.79 58.7415 1625.55 51.6615 1626.99 45.3015H1674.15C1672.47 30.7815 1658.43 25.7415 1648.35 26.3415C1635.15 26.9415 1616.19 35.9415 1616.79 56.8215C1617.27 76.5015 1634.79 85.3815 1650.39 84.6615C1664.67 83.9415 1671.75 74.5815 1675.59 67.7415L1674.75 67.3815ZM1642.83 27.6615C1654.59 25.5015 1663.95 33.9015 1665.51 44.3415H1627.23C1629.51 36.1815 1634.67 29.2215 1642.83 27.6615ZM1684.02 0.0615177V84.0615H1693.5V0.0615177H1684.02ZM1770.68 39.1815C1783.16 37.7415 1794.8 32.9415 1794.8 19.9815C1794.8 3.18152 1774.88 0.0615177 1759.4 0.0615177H1734.32V84.0615H1764.56C1780.16 84.0615 1800.08 78.4215 1800.08 61.5015C1800.08 46.8615 1784.84 40.6215 1770.68 39.1815ZM1759.4 1.02152C1779.08 1.02152 1785.44 9.42152 1785.44 19.9815C1785.44 30.6615 1779.08 38.9415 1759.4 38.9415H1743.68V1.02152H1759.4ZM1764.56 83.2215H1743.68V39.9015H1764.56C1784.36 39.9015 1790.6 50.9415 1790.6 61.5015C1790.6 72.1815 1784.36 83.2215 1764.56 83.2215ZM1835.92 26.3415C1826.32 26.3415 1820.56 31.3815 1818.64 37.8615L1819.48 38.2215C1821.4 31.8615 1827.04 27.5415 1834.84 27.5415C1843.36 27.5415 1848.28 35.5815 1848.28 44.7015V55.8615C1840.84 40.5015 1806.04 41.7015 1806.04 66.1815C1806.04 76.7415 1816.12 84.6615 1827.52 84.6615C1839.64 84.6615 1846.12 76.0215 1848.28 67.2615L1856.44 84.0615H1857.76V46.2615C1857.76 31.5015 1845.88 26.3415 1835.92 26.3415ZM1830.16 82.3815C1821.88 82.3815 1814.68 75.0615 1814.68 65.1015C1814.68 41.5815 1843.6 44.3415 1848.28 58.1415V61.0215C1847.8 71.3415 1841.32 82.3815 1830.16 82.3815ZM1920.16 47.3415C1918.6 33.0615 1910.32 26.3415 1900.48 26.3415C1884.88 26.3415 1880.8 42.5415 1879.24 56.1015V27.1815H1869.76V84.0615H1879.24V66.3015C1879.24 56.2215 1881.64 31.0215 1895.08 28.5015C1905.4 26.4615 1909.84 36.6615 1910.8 45.6615C1911.4 51.7815 1913.92 80.1015 1914.28 84.0615H1923.88C1923.28 79.6215 1921.36 59.1015 1920.16 47.3415ZM1958.71 44.4615L1978.15 27.1815H1976.83L1942.87 57.3015V0.0615177H1933.51V84.0615H1942.87V58.3815L1952.59 49.7415L1973.59 84.0615L1983.31 84.0615L1958.71 44.4615ZM2069.81 47.3415C2068.25 33.0615 2059.97 26.3415 2050.13 26.3415C2034.53 26.3415 2030.45 42.5415 2028.89 56.1015V0.0615177H2019.41V84.0615H2028.89V66.1815C2028.89 56.1015 2031.29 31.0215 2044.73 28.5015C2055.05 26.4615 2059.49 36.6615 2060.45 45.6615C2061.05 51.7815 2063.45 80.1015 2063.93 84.0615H2073.41C2072.93 79.6215 2071.01 59.1015 2069.81 47.3415ZM2111.12 26.3415C2096 26.3415 2079.44 37.2615 2079.44 55.5015C2079.44 73.7415 2096 84.6615 2111.12 84.6615C2126.24 84.6615 2142.8 73.7415 2142.8 55.5015C2142.8 37.2615 2126.24 26.3415 2111.12 26.3415ZM2111.12 83.7015C2099.24 83.7015 2089.28 71.3415 2089.28 55.5015C2089.28 39.6615 2099.24 27.3015 2111.12 27.3015C2123 27.3015 2132.96 39.6615 2132.96 55.5015C2132.96 71.3415 2123 83.7015 2111.12 83.7015ZM2185.95 62.8215C2185.95 72.7815 2182.47 82.1415 2174.43 82.5015C2164.95 82.9815 2163.03 75.7815 2163.03 65.3415V27.1815H2177.07V26.3415H2163.03V9.90152H2161.71L2153.55 26.3415H2146.47V27.1815H2153.55V63.6615C2153.55 77.7015 2160.15 84.6615 2170.71 84.6615C2183.43 84.6615 2186.79 74.2215 2186.79 62.8215H2185.95ZM2250.84 67.3815C2248.92 70.8615 2242.44 81.3015 2230.68 82.5015C2218.44 83.8215 2208.36 77.1015 2203.92 64.5015C2201.88 58.7415 2201.64 51.6615 2203.08 45.3015H2250.24C2248.56 30.7815 2234.52 25.7415 2224.44 26.3415C2211.24 26.9415 2192.28 35.9415 2192.88 56.8215C2193.36 76.5015 2210.88 85.3815 2226.48 84.6615C2240.76 83.9415 2247.84 74.5815 2251.68 67.7415L2250.84 67.3815ZM2218.92 27.6615C2230.68 25.5015 2240.04 33.9015 2241.6 44.3415H2203.32C2205.6 36.1815 2210.76 29.2215 2218.92 27.6615ZM2260.11 0.0615177V84.0615H2269.59V0.0615177H2260.11ZM-284.44 179.182C-271.96 177.742 -260.32 172.942 -260.32 159.982C-260.32 143.182 -280.24 140.062 -295.72 140.062H-320.8V224.062H-290.56C-274.96 224.062 -255.04 218.422 -255.04 201.502C-255.04 186.862 -270.28 180.622 -284.44 179.182ZM-295.72 141.022C-276.04 141.022 -269.68 149.422 -269.68 159.982C-269.68 170.662 -276.04 178.942 -295.72 178.942H-311.44V141.022H-295.72ZM-290.56 223.222H-311.44V179.902H-290.56C-270.76 179.902 -264.52 190.942 -264.52 201.502C-264.52 212.182 -270.76 223.222 -290.56 223.222ZM-219.197 166.342C-228.797 166.342 -234.557 171.382 -236.477 177.862L-235.637 178.222C-233.717 171.862 -228.077 167.542 -220.277 167.542C-211.757 167.542 -206.837 175.582 -206.837 184.702V195.862C-214.277 180.502 -249.077 181.702 -249.077 206.182C-249.077 216.742 -238.997 224.662 -227.597 224.662C-215.477 224.662 -208.997 216.022 -206.837 207.262L-198.677 224.062H-197.357V186.262C-197.357 171.502 -209.237 166.342 -219.197 166.342ZM-224.957 222.382C-233.237 222.382 -240.437 215.062 -240.437 205.102C-240.437 181.582 -211.517 184.342 -206.837 198.142V201.022C-207.317 211.342 -213.797 222.382 -224.957 222.382ZM-134.959 187.342C-136.519 173.062 -144.799 166.342 -154.639 166.342C-170.239 166.342 -174.319 182.542 -175.879 196.102V167.182H-185.359V224.062H-175.879V206.302C-175.879 196.222 -173.479 171.022 -160.039 168.502C-149.719 166.462 -145.279 176.662 -144.319 185.662C-143.719 191.782 -141.199 220.102 -140.839 224.062H-131.239C-131.839 219.622 -133.759 199.102 -134.959 187.342ZM-96.4094 184.462L-76.9694 167.182H-78.2894L-112.249 197.302V140.062H-121.609V224.062H-112.249V198.382L-102.529 189.742L-81.5294 224.062H-71.8094L-96.4094 184.462ZM14.6891 187.342C13.1291 173.062 4.84906 166.342 -4.99093 166.342C-20.5909 166.342 -24.6709 182.542 -26.2309 196.102V140.062H-35.7109V224.062H-26.2309V206.182C-26.2309 196.102 -23.8309 171.022 -10.3909 168.502C-0.0709372 166.462 4.36906 176.662 5.32906 185.662C5.92906 191.782 8.32907 220.102 8.80907 224.062H18.2891C17.8091 219.622 15.8891 199.102 14.6891 187.342ZM56.0019 166.342C40.8819 166.342 24.3219 177.262 24.3219 195.502C24.3219 213.742 40.8819 224.662 56.0019 224.662C71.1219 224.662 87.6819 213.742 87.6819 195.502C87.6819 177.262 71.1219 166.342 56.0019 166.342ZM56.0019 223.702C44.1219 223.702 34.1619 211.342 34.1619 195.502C34.1619 179.662 44.1219 167.302 56.0019 167.302C67.8819 167.302 77.8419 179.662 77.8419 195.502C77.8419 211.342 67.8819 223.702 56.0019 223.702ZM130.833 202.822C130.833 212.782 127.353 222.142 119.313 222.502C109.833 222.982 107.913 215.782 107.913 205.342V167.182H121.953V166.342H107.913V149.902H106.593L98.4331 166.342H91.3531V167.182H98.4331V203.662C98.4331 217.702 105.033 224.662 115.593 224.662C128.313 224.662 131.673 214.222 131.673 202.822H130.833ZM195.722 207.382C193.802 210.862 187.322 221.302 175.562 222.502C163.322 223.822 153.242 217.102 148.802 204.502C146.762 198.742 146.522 191.662 147.962 185.302L195.122 185.302C193.442 170.782 179.402 165.742 169.322 166.342C156.122 166.942 137.162 175.942 137.762 196.822C138.242 216.502 155.762 225.382 171.362 224.662C185.642 223.942 192.722 214.582 196.562 207.742L195.722 207.382ZM163.802 167.662C175.562 165.502 184.922 173.902 186.482 184.342L148.202 184.342C150.482 176.182 155.642 169.222 163.802 167.662ZM204.992 140.062V224.062H214.472V140.062H204.992ZM319.31 179.182C331.79 177.742 343.43 172.942 343.43 159.982C343.43 143.182 323.51 140.062 308.03 140.062H282.95V224.062H313.19C328.79 224.062 348.71 218.422 348.71 201.502C348.71 186.862 333.47 180.622 319.31 179.182ZM308.03 141.022C327.71 141.022 334.07 149.422 334.07 159.982C334.07 170.662 327.71 178.942 308.03 178.942H292.31V141.022H308.03ZM313.19 223.222H292.31V179.902H313.19C332.99 179.902 339.23 190.942 339.23 201.502C339.23 212.182 332.99 223.222 313.19 223.222ZM384.553 166.342C374.953 166.342 369.193 171.382 367.273 177.862L368.113 178.222C370.033 171.862 375.673 167.542 383.473 167.542C391.993 167.542 396.913 175.582 396.913 184.702V195.862C389.473 180.502 354.673 181.702 354.673 206.182C354.673 216.742 364.753 224.662 376.153 224.662C388.273 224.662 394.753 216.022 396.913 207.262L405.073 224.062H406.393V186.262C406.393 171.502 394.513 166.342 384.553 166.342ZM378.793 222.382C370.513 222.382 363.313 215.062 363.313 205.102C363.313 181.582 392.233 184.342 396.913 198.142V201.022C396.433 211.342 389.953 222.382 378.793 222.382ZM468.791 187.342C467.231 173.062 458.951 166.342 449.111 166.342C433.511 166.342 429.431 182.542 427.871 196.102V167.182H418.391V224.062H427.871V206.302C427.871 196.222 430.271 171.022 443.711 168.502C454.031 166.462 458.471 176.662 459.431 185.662C460.031 191.782 462.551 220.102 462.911 224.062H472.511C471.911 219.622 469.991 199.102 468.791 187.342ZM507.341 184.462L526.781 167.182H525.461L491.501 197.302V140.062H482.141V224.062H491.501V198.382L501.221 189.742L522.221 224.062H531.941L507.341 184.462ZM618.439 187.342C616.879 173.062 608.599 166.342 598.759 166.342C583.159 166.342 579.079 182.542 577.519 196.102V140.062H568.039V224.062H577.519V206.182C577.519 196.102 579.919 171.022 593.359 168.502C603.679 166.462 608.119 176.662 609.079 185.662C609.679 191.782 612.079 220.102 612.559 224.062H622.039C621.559 219.622 619.639 199.102 618.439 187.342ZM659.752 166.342C644.632 166.342 628.072 177.262 628.072 195.502C628.072 213.742 644.632 224.662 659.752 224.662C674.872 224.662 691.432 213.742 691.432 195.502C691.432 177.262 674.872 166.342 659.752 166.342ZM659.752 223.702C647.872 223.702 637.912 211.342 637.912 195.502C637.912 179.662 647.872 167.302 659.752 167.302C671.632 167.302 681.592 179.662 681.592 195.502C681.592 211.342 671.632 223.702 659.752 223.702ZM734.583 202.822C734.583 212.782 731.103 222.142 723.063 222.502C713.583 222.982 711.663 215.782 711.663 205.342V167.182H725.703V166.342H711.663V149.902H710.343L702.183 166.342H695.103V167.182H702.183V203.662C702.183 217.702 708.783 224.662 719.343 224.662C732.063 224.662 735.423 214.222 735.423 202.822H734.583ZM799.472 207.382C797.552 210.862 791.072 221.302 779.312 222.502C767.072 223.822 756.992 217.102 752.552 204.502C750.512 198.742 750.272 191.662 751.712 185.302H798.872C797.192 170.782 783.152 165.742 773.072 166.342C759.872 166.942 740.912 175.942 741.512 196.822C741.992 216.502 759.512 225.382 775.112 224.662C789.392 223.942 796.472 214.582 800.312 207.742L799.472 207.382ZM767.552 167.662C779.312 165.502 788.672 173.902 790.232 184.342H751.952C754.232 176.182 759.392 169.222 767.552 167.662ZM808.742 140.062V224.062H818.222V140.062H808.742ZM895.404 179.182C907.884 177.742 919.524 172.942 919.524 159.982C919.524 143.182 899.604 140.062 884.124 140.062H859.044V224.062H889.284C904.884 224.062 924.804 218.422 924.804 201.502C924.804 186.862 909.564 180.622 895.404 179.182ZM884.124 141.022C903.804 141.022 910.164 149.422 910.164 159.982C910.164 170.662 903.804 178.942 884.124 178.942H868.404V141.022H884.124ZM889.284 223.222H868.404V179.902H889.284C909.084 179.902 915.324 190.942 915.324 201.502C915.324 212.182 909.084 223.222 889.284 223.222ZM960.647 166.342C951.047 166.342 945.287 171.382 943.367 177.862L944.207 178.222C946.127 171.862 951.767 167.542 959.567 167.542C968.087 167.542 973.007 175.582 973.007 184.702V195.862C965.567 180.502 930.767 181.702 930.767 206.182C930.767 216.742 940.847 224.662 952.247 224.662C964.367 224.662 970.847 216.022 973.007 207.262L981.167 224.062H982.487V186.262C982.487 171.502 970.607 166.342 960.647 166.342ZM954.887 222.382C946.607 222.382 939.407 215.062 939.407 205.102C939.407 181.582 968.327 184.342 973.007 198.142V201.022C972.527 211.342 966.047 222.382 954.887 222.382ZM1044.88 187.342C1043.32 173.062 1035.04 166.342 1025.2 166.342C1009.6 166.342 1005.52 182.542 1003.96 196.102V167.182H994.484V224.062H1003.96V206.302C1003.96 196.222 1006.36 171.022 1019.8 168.502C1030.12 166.462 1034.56 176.662 1035.52 185.662C1036.12 191.782 1038.64 220.102 1039 224.062H1048.6C1048 219.622 1046.08 199.102 1044.88 187.342ZM1083.43 184.462L1102.87 167.182H1101.55L1067.59 197.302V140.062H1058.23V224.062H1067.59V198.382L1077.31 189.742L1098.31 224.062H1108.03L1083.43 184.462ZM1222.19 187.342C1220.63 173.062 1212.35 166.342 1202.51 166.342C1186.91 166.342 1182.83 182.542 1181.27 196.102V140.062H1171.79V224.062H1181.27V206.182C1181.27 196.102 1183.67 171.022 1197.11 168.502C1207.43 166.462 1211.87 176.662 1212.83 185.662C1213.43 191.782 1215.83 220.102 1216.31 224.062H1225.79C1225.31 219.622 1223.39 199.102 1222.19 187.342ZM1263.5 166.342C1248.38 166.342 1231.82 177.262 1231.82 195.502C1231.82 213.742 1248.38 224.662 1263.5 224.662C1278.62 224.662 1295.18 213.742 1295.18 195.502C1295.18 177.262 1278.62 166.342 1263.5 166.342ZM1263.5 223.702C1251.62 223.702 1241.66 211.342 1241.66 195.502C1241.66 179.662 1251.62 167.302 1263.5 167.302C1275.38 167.302 1285.34 179.662 1285.34 195.502C1285.34 211.342 1275.38 223.702 1263.5 223.702ZM1338.33 202.822C1338.33 212.782 1334.85 222.142 1326.81 222.502C1317.33 222.982 1315.41 215.782 1315.41 205.342V167.182H1329.45V166.342H1315.41V149.902H1314.09L1305.93 166.342H1298.85V167.182H1305.93V203.662C1305.93 217.702 1312.53 224.662 1323.09 224.662C1335.81 224.662 1339.17 214.222 1339.17 202.822H1338.33ZM1403.22 207.382C1401.3 210.862 1394.82 221.302 1383.06 222.502C1370.82 223.822 1360.74 217.102 1356.3 204.502C1354.26 198.742 1354.02 191.662 1355.46 185.302H1402.62C1400.94 170.782 1386.9 165.742 1376.82 166.342C1363.62 166.942 1344.66 175.942 1345.26 196.822C1345.74 216.502 1363.26 225.382 1378.86 224.662C1393.14 223.942 1400.22 214.582 1404.06 207.742L1403.22 207.382ZM1371.3 167.662C1383.06 165.502 1392.42 173.902 1393.98 184.342H1355.7C1357.98 176.182 1363.14 169.222 1371.3 167.662ZM1412.49 140.062V224.062H1421.97V140.062H1412.49ZM1499.15 179.182C1511.63 177.742 1523.27 172.942 1523.27 159.982C1523.27 143.182 1503.35 140.062 1487.87 140.062H1462.79V224.062H1493.03C1508.63 224.062 1528.55 218.422 1528.55 201.502C1528.55 186.862 1513.31 180.622 1499.15 179.182ZM1487.87 141.022C1507.55 141.022 1513.91 149.422 1513.91 159.982C1513.91 170.662 1507.55 178.942 1487.87 178.942H1472.15V141.022H1487.87ZM1493.03 223.222H1472.15V179.902H1493.03C1512.83 179.902 1519.07 190.942 1519.07 201.502C1519.07 212.182 1512.83 223.222 1493.03 223.222ZM1564.4 166.342C1554.8 166.342 1549.04 171.382 1547.12 177.862L1547.96 178.222C1549.88 171.862 1555.52 167.542 1563.32 167.542C1571.84 167.542 1576.76 175.582 1576.76 184.702V195.862C1569.32 180.502 1534.52 181.702 1534.52 206.182C1534.52 216.742 1544.6 224.662 1556 224.662C1568.12 224.662 1574.6 216.022 1576.76 207.262L1584.92 224.062H1586.24V186.262C1586.24 171.502 1574.36 166.342 1564.4 166.342ZM1558.64 222.382C1550.36 222.382 1543.16 215.062 1543.16 205.102C1543.16 181.582 1572.08 184.342 1576.76 198.142V201.022C1576.28 211.342 1569.8 222.382 1558.64 222.382ZM1648.63 187.342C1647.07 173.062 1638.79 166.342 1628.95 166.342C1613.35 166.342 1609.27 182.542 1607.71 196.102V167.182H1598.23V224.062H1607.71V206.302C1607.71 196.222 1610.11 171.022 1623.55 168.502C1633.87 166.462 1638.31 176.662 1639.27 185.662C1639.87 191.782 1642.39 220.102 1642.75 224.062H1652.35C1651.75 219.622 1649.83 199.102 1648.63 187.342ZM1687.18 184.462L1706.62 167.182H1705.3L1671.34 197.302V140.062H1661.98V224.062H1671.34V198.382L1681.06 189.742L1702.06 224.062H1711.78L1687.18 184.462ZM1798.28 187.342C1796.72 173.062 1788.44 166.342 1778.6 166.342C1763 166.342 1758.92 182.542 1757.36 196.102V140.062H1747.88V224.062H1757.36V206.182C1757.36 196.102 1759.76 171.022 1773.2 168.502C1783.52 166.462 1787.96 176.662 1788.92 185.662C1789.52 191.782 1791.92 220.102 1792.4 224.062H1801.88C1801.4 219.622 1799.48 199.102 1798.28 187.342ZM1839.6 166.342C1824.48 166.342 1807.92 177.262 1807.92 195.502C1807.92 213.742 1824.48 224.662 1839.6 224.662C1854.72 224.662 1871.28 213.742 1871.28 195.502C1871.28 177.262 1854.72 166.342 1839.6 166.342ZM1839.6 223.702C1827.72 223.702 1817.76 211.342 1817.76 195.502C1817.76 179.662 1827.72 167.302 1839.6 167.302C1851.48 167.302 1861.44 179.662 1861.44 195.502C1861.44 211.342 1851.48 223.702 1839.6 223.702ZM1914.43 202.822C1914.43 212.782 1910.95 222.142 1902.91 222.502C1893.43 222.982 1891.51 215.782 1891.51 205.342V167.182H1905.55V166.342H1891.51V149.902H1890.19L1882.03 166.342H1874.95V167.182H1882.03V203.662C1882.03 217.702 1888.63 224.662 1899.19 224.662C1911.91 224.662 1915.27 214.222 1915.27 202.822H1914.43ZM1979.32 207.382C1977.4 210.862 1970.92 221.302 1959.16 222.502C1946.92 223.822 1936.84 217.102 1932.4 204.502C1930.36 198.742 1930.12 191.662 1931.56 185.302H1978.72C1977.04 170.782 1963 165.742 1952.92 166.342C1939.72 166.942 1920.76 175.942 1921.36 196.822C1921.84 216.502 1939.36 225.382 1954.96 224.662C1969.24 223.942 1976.32 214.582 1980.16 207.742L1979.32 207.382ZM1947.4 167.662C1959.16 165.502 1968.52 173.902 1970.08 184.342H1931.8C1934.08 176.182 1939.24 169.222 1947.4 167.662ZM1988.59 140.062V224.062H1998.07V140.062H1988.59Z" fill="#FFFCF6" fill-opacity="0.12"/>
<path d="M429.935 39.1815C442.415 37.7415 454.055 32.9415 454.055 19.9815C454.055 3.18152 434.135 0.0615177 418.655 0.0615177H393.575V84.0615H423.815C439.415 84.0615 459.335 78.4215 459.335 61.5015C459.335 46.8615 444.095 40.6215 429.935 39.1815ZM418.655 1.02152C438.335 1.02152 444.695 9.42152 444.695 19.9815C444.695 30.6615 438.335 38.9415 418.655 38.9415H402.935V1.02152H418.655ZM423.815 83.2215H402.935V39.9015H423.815C443.615 39.9015 449.855 50.9415 449.855 61.5015C449.855 72.1815 443.615 83.2215 423.815 83.2215ZM495.178 26.3415C485.578 26.3415 479.818 31.3815 477.898 37.8615L478.738 38.2215C480.658 31.8615 486.298 27.5415 494.098 27.5415C502.618 27.5415 507.538 35.5815 507.538 44.7015V55.8615C500.098 40.5015 465.298 41.7015 465.298 66.1815C465.298 76.7415 475.378 84.6615 486.778 84.6615C498.898 84.6615 505.378 76.0215 507.538 67.2615L515.698 84.0615H517.018V46.2615C517.018 31.5015 505.138 26.3415 495.178 26.3415ZM489.418 82.3815C481.138 82.3815 473.938 75.0615 473.938 65.1015C473.938 41.5815 502.858 44.3415 507.538 58.1415V61.0215C507.058 71.3415 500.578 82.3815 489.418 82.3815ZM579.416 47.3415C577.856 33.0615 569.576 26.3415 559.736 26.3415C544.136 26.3415 540.056 42.5415 538.496 56.1015V27.1815H529.016V84.0615H538.496V66.3015C538.496 56.2215 540.896 31.0215 554.336 28.5015C564.656 26.4615 569.096 36.6615 570.056 45.6615C570.656 51.7815 573.176 80.1015 573.536 84.0615H583.136C582.536 79.6215 580.616 59.1015 579.416 47.3415ZM617.966 44.4615L637.406 27.1815H636.086L602.126 57.3015V0.0615177H592.766V84.0615H602.126V58.3815L611.846 49.7415L632.846 84.0615H642.566L617.966 44.4615ZM652.208 86.3415V87.3015H698.408V86.3415H652.208ZM712.794 86.3415V87.3015H758.994V86.3415H712.794ZM822.58 47.3415C821.02 33.0615 812.74 26.3415 802.9 26.3415C787.3 26.3415 783.22 42.5415 781.66 56.1015V0.0615177H772.18V84.0615H781.66V66.1815C781.66 56.1015 784.06 31.0215 797.5 28.5015C807.82 26.4615 812.26 36.6615 813.22 45.6615C813.82 51.7815 816.22 80.1015 816.7 84.0615H826.18C825.7 79.6215 823.78 59.1015 822.58 47.3415ZM863.893 26.3415C848.773 26.3415 832.213 37.2615 832.213 55.5015C832.213 73.7415 848.773 84.6615 863.893 84.6615C879.013 84.6615 895.573 73.7415 895.573 55.5015C895.573 37.2615 879.013 26.3415 863.893 26.3415ZM863.893 83.7015C852.013 83.7015 842.053 71.3415 842.053 55.5015C842.053 39.6615 852.013 27.3015 863.893 27.3015C875.773 27.3015 885.733 39.6615 885.733 55.5015C885.733 71.3415 875.773 83.7015 863.893 83.7015ZM938.724 62.8215C938.724 72.7815 935.244 82.1415 927.204 82.5015C917.724 82.9815 915.804 75.7815 915.804 65.3415V27.1815H929.844V26.3415H915.804V9.90152H914.484L906.324 26.3415H899.244V27.1815H906.324V63.6615C906.324 77.7015 912.924 84.6615 923.484 84.6615C936.204 84.6615 939.564 74.2215 939.564 62.8215H938.724ZM1003.61 67.3815C1001.69 70.8615 995.213 81.3015 983.453 82.5015C971.213 83.8215 961.133 77.1015 956.693 64.5015C954.653 58.7415 954.413 51.6615 955.853 45.3015H1003.01C1001.33 30.7815 987.293 25.7415 977.213 26.3415C964.013 26.9415 945.053 35.9415 945.653 56.8215C946.133 76.5015 963.653 85.3815 979.253 84.6615C993.533 83.9415 1000.61 74.5815 1004.45 67.7415L1003.61 67.3815ZM971.693 27.6615C983.453 25.5015 992.813 33.9015 994.373 44.3415H956.093C958.373 36.1815 963.533 29.2215 971.693 27.6615ZM1012.88 0.0615177V84.0615H1022.36V0.0615177L1012.88 0.0615177ZM1083.77 69.1815C1072.97 70.8615 1064.09 65.2215 1060.85 54.4215C1057.49 43.6215 1061.33 31.2615 1071.77 28.9815C1079.81 27.3015 1088.93 31.7415 1093.49 39.6615V32.3415C1091.81 30.9015 1084.73 27.5415 1078.01 27.5415C1065.89 27.5415 1054.97 37.3815 1054.97 49.5015C1054.97 61.5015 1065.41 71.3415 1077.53 71.3415C1088.33 71.3415 1094.21 65.7015 1097.57 58.8615L1097.09 58.6215C1093.97 64.8615 1089.17 68.4615 1083.77 69.1815ZM1075.85 9.78152C1053.53 9.78152 1035.53 27.7815 1035.53 50.1015C1035.53 72.3015 1053.53 90.4215 1075.85 90.4215C1098.05 90.4215 1116.17 72.3015 1116.17 50.1015C1116.17 27.7815 1098.05 9.78152 1075.85 9.78152ZM1075.85 89.3415C1054.13 89.3415 1036.49 71.7015 1036.49 50.1015C1036.49 28.3815 1054.13 10.7415 1075.85 10.7415C1097.57 10.7415 1115.21 28.3815 1115.21 50.1015C1115.21 71.7015 1097.57 89.3415 1075.85 89.3415Z" fill="#FFFCF6"/>
</svg>
