<svg width="1860" height="650" viewBox="0 0 1860 650" fill="none" xmlns="http://www.w3.org/2000/svg">
<path d="M856 396V414.6L931.6 398.4V606H955V398.4L1030.6 414.6V396H856ZM1139.74 393C1080.34 393 1027.54 441 1027.54 500.4C1027.54 559.5 1080.34 607.5 1139.74 607.5C1198.84 607.5 1251.94 559.5 1251.94 500.4C1251.94 441 1198.84 393 1139.74 393ZM1139.74 605.1C1087.24 605.1 1052.74 555.6 1052.74 500.4C1052.74 444.9 1087.24 395.7 1139.74 395.7C1191.94 395.7 1226.74 444.9 1226.74 500.4C1226.74 555.6 1191.94 605.1 1139.74 605.1ZM1428.06 396V535.2C1428.06 569.1 1405.56 601.2 1368.66 604.2C1325.16 607.8 1299.66 577.8 1299.66 528.3V396H1275.96V528.3C1275.96 582.9 1313.46 607.5 1358.16 607.5C1400.46 607.5 1430.16 577.2 1430.16 535.2V396H1428.06ZM1663.73 545.4C1648.43 575.7 1625.03 593.1 1598.33 597.3C1545.53 605.1 1502.03 577.8 1485.83 524.7C1469.93 471.9 1488.53 411.3 1539.53 400.2C1579.13 391.5 1623.53 413.7 1646.03 452.1V416.4C1637.63 409.2 1603.13 393 1570.13 393C1511.03 393 1457.03 441 1457.03 500.4C1457.03 559.5 1508.33 607.5 1567.73 607.5C1620.83 607.5 1649.63 580.2 1665.83 546.6L1663.73 545.4ZM1818.03 396V480.6H1713.63V396H1689.93V606H1713.63V482.7H1818.03V606H1841.73V396H1818.03Z" fill="#FCD043"/>
<path d="M185.1 156.1V229C175.2 239.8 161.7 248.2 143.7 250.6C90.3 257.5 51 227.8 34.8 174.7C18.6 121.9 37.2 61.3 88.5 50.2C127.8 41.5 172.5 63.7 194.7 102.1V66.4C186.3 59.2 152.1 43 119.1 43C59.7 43 6 91 6 150.4C6 209.5 54 257.5 113.1 257.5C171.9 257.5 200.7 226 208.8 208.6V156.1H185.1ZM268.458 253.9V139L344.058 145.6V130.3L268.458 136.9V48.4L350.358 64.6V46H244.758V256H353.658V237.7L268.458 253.9ZM371.766 46V64.6L447.366 48.4V256H470.766V48.4L546.366 64.6V46L371.766 46ZM645.539 46V256H669.239V46H645.539ZM853.505 46V218.2L717.605 46H687.305L706.505 70.3V256H708.605V73.3L851.405 256H855.905V46H853.505Z" fill="#1B3B36"/>
<path d="M185.1 156.1V229C175.2 239.8 161.7 248.2 143.7 250.6C90.3 257.5 51 227.8 34.8 174.7C18.6 121.9 37.2 61.3 88.5 50.2C127.8 41.5 172.5 63.7 194.7 102.1V66.4C186.3 59.2 152.1 43 119.1 43C59.7 43 6 91 6 150.4C6 209.5 54 257.5 113.1 257.5C171.9 257.5 200.7 226 208.8 208.6V156.1H185.1ZM268.458 253.9V139L344.058 145.6V130.3L268.458 136.9V48.4L350.358 64.6V46H244.758V256H353.658V237.7L268.458 253.9ZM371.766 46V64.6L447.366 48.4V256H470.766V48.4L546.366 64.6V46L371.766 46ZM645.539 46V256H669.239V46H645.539ZM853.505 46V218.2L717.605 46H687.305L706.505 70.3V256H708.605V73.3L851.405 256H855.905V46H853.505Z" fill="black" fill-opacity="0.2"/>
<path d="M990 75L995.458 124.324L1020.51 81.4841L1005.43 128.763L1045.74 99.8152L1012.73 136.875L1061.33 126.824L1016.11 147.256L1064.59 157.84L1014.97 158.112L1054.95 187.5L1009.51 167.565L1034.08 210.676L1000.68 173.981L1005.59 223.361L990 176.25L974.407 223.361L979.323 173.981L945.916 210.676L970.492 167.565L925.048 187.5L965.035 158.112L915.411 157.84L963.894 147.256L918.671 126.824L967.267 136.875L934.264 99.8152L974.571 128.763L959.495 81.4841L984.542 124.324L990 75Z" fill="#FCD043"/>
</svg>
